<svg xmlns="http://www.w3.org/2000/svg" version="1.0" preserveAspectRatio="xMidYMid meet" viewBox="31 35 122 108.25">
<metadata>
Created by potrace 1.16, written by Peter Selinger 2001-2019
</metadata>
<g transform="translate(0.000000,180.000000) scale(0.100000,-0.100000)" fill="#000000" stroke="none">
<path d="M918 1401 l-53 -49 190 -185 190 -186 -467 -1 -468 0 0 -75 0 -75 467 0 467 0 -74 -76 c-41 -42 -126 -121 -187 -176 -62 -54 -113 -105 -113 -112 0 -11 52 -64 93 -96 17 -12 42 11 293 261 l274 274 -272 272 c-150 150 -276 273 -280 273 -4 0 -30 -22 -60 -49z"/>
</g>
</svg>