<svg xmlns="http://www.w3.org/2000/svg" viewBox="0 0 131.48 1269"><g xmlns="http://www.w3.org/2000/svg" transform="matrix(0 -1 1 0 -34.9 1296)"><g transform="translate(0.000000,188.000000) scale(0.100000,-0.100000)" fill="#000000" stroke="none"><path d="M270 1020 l0 -510 315 0 315 0 0 60 0 60 -250 0 -250 0 0 450 0 450 -65 0 -65 0 0 -510z" /><path d="M2200 1432 c0 -54 5 -125 10 -158 19 -111 17 -106 58 -102 l37 3 17 90 c10 50 17 129 18 178 l0 87 -70 0 -70 0 0 -98z" /><path d="M3530 1524 c0 -4 28 -111 61 -238 34 -127 72 -271 84 -321 59 -231 117 -441 124 -448 5 -4 36 -7 71 -5 l63 3 43 155 c24 85 78 282 121 438 42 155 79 279 83 275 4 -5 35 -111 69 -238 35 -126 88 -321 119 -433 l56 -203 65 3 65 3 52 190 c28 105 88 325 133 490 45 165 84 308 87 318 5 16 -1 18 -62 15 l-68 -3 -13 -50 c-7 -27 -51 -210 -98 -405 -47 -195 -88 -366 -91 -380 -5 -17 -17 22 -40 130 -19 85 -70 279 -113 430 l-78 275 -81 3 -81 3 -20 -68 c-45 -155 -152 -537 -184 -663 -19 -74 -37 -128 -40 -120 -3 8 -17 71 -32 140 -26 124 -69 312 -130 570 l-32 135 -66 3 c-37 2 -67 0 -67 -4z" /><path d="M6180 1020 l0 -510 60 0 60 0 0 143 0 143 45 44 c24 24 46 42 48 39 2 -2 57 -86 122 -186 l118 -183 73 0 c41 0 74 3 74 6 0 3 -60 95 -134 204 -74 109 -142 212 -151 230 l-17 33 139 133 138 133 -80 0 -80 1 -147 -147 -148 -148 0 288 0 287 -60 0 -60 0 0 -510z" /><path d="M7192 1473 l3 -58 168 -3 167 -2 0 -450 0 -450 65 0 65 0 0 450 0 450 168 2 167 3 3 58 3 57 -406 0 -406 0 3 -57z" /><path d="M10730 1020 l0 -510 59 0 60 0 3 258 c3 292 8 312 81 360 57 38 149 43 197 10 63 -42 65 -53 68 -355 l3 -273 60 0 60 0 -3 303 c-3 335 -3 334 -72 395 -39 34 -119 62 -176 62 -56 0 -128 -25 -171 -59 -21 -17 -40 -31 -43 -31 -3 0 -6 79 -6 175 l0 175 -60 0 -60 0 0 -510z" /><path d="M12800 1431 c0 -108 38 -649 46 -663 3 -4 20 -8 39 -8 l33 0 6 63 c13 146 36 533 36 616 l0 91 -80 0 -80 0 0 -99z" /><path d="M1920 1467 l-55 -33 -5 -90 -5 -89 -44 -5 -44 -5 -1 -42 -1 -42 45 -3 45 -3 5 -292 5 -292 29 -30 c35 -36 105 -55 170 -46 25 4 49 11 52 16 2 5 2 30 -2 57 l-6 49 -47 -5 c-82 -7 -82 -7 -79 289 l3 254 63 3 63 3 -3 42 -3 42 -62 3 -62 3 -3 124 -3 125 -55 -33z" /><path d="M10403 1459 l-53 -31 0 -89 0 -89 -45 0 -45 0 0 -45 0 -45 44 0 44 0 4 -282 c3 -214 7 -290 18 -311 28 -57 127 -89 208 -68 l42 12 -7 47 c-3 26 -8 49 -10 51 -2 3 -23 4 -47 2 -77 -4 -76 -6 -76 290 l0 259 60 0 60 0 0 45 0 45 -60 0 -60 0 0 120 c0 89 -3 120 -12 120 -7 0 -37 -14 -65 -31z" /><path d="M1251 1254 c-68 -18 -109 -43 -156 -95 -49 -54 -74 -117 -87 -214 -19 -146 18 -281 98 -358 129 -125 365 -126 489 -2 36 36 75 103 75 128 0 18 -30 27 -87 27 -28 0 -43 -4 -43 -13 0 -7 -11 -29 -25 -50 -72 -105 -256 -104 -330 2 -25 37 -55 117 -55 148 0 10 52 13 276 13 l277 0 -6 83 c-11 178 -89 287 -237 331 -65 19 -118 19 -189 0z m184 -107 c43 -21 86 -73 100 -121 24 -82 39 -76 -190 -76 -229 0 -219 -4 -194 71 33 97 124 154 224 141 22 -2 49 -9 60 -15z" /><path d="M2657 1259 c-151 -35 -225 -163 -166 -286 37 -77 83 -100 330 -167 114 -32 142 -91 75 -163 -31 -34 -39 -37 -100 -41 -36 -2 -82 -1 -101 2 -45 9 -103 59 -113 100 -9 31 -9 31 -67 29 -31 -1 -60 -4 -62 -7 -3 -3 3 -28 12 -57 38 -114 132 -171 285 -173 96 -1 147 12 206 50 111 72 136 225 50 309 -35 35 -147 82 -274 116 -94 24 -142 57 -142 96 0 62 52 96 150 97 83 0 127 -22 155 -81 19 -40 22 -42 55 -37 81 12 82 13 75 42 -12 51 -42 97 -81 124 -70 49 -193 69 -287 47z" /><path d="M5119 1256 c-165 -44 -249 -173 -249 -379 1 -181 63 -292 200 -356 45 -21 70 -25 140 -25 74 0 93 4 150 30 116 54 172 135 192 275 23 155 -16 294 -105 376 -55 51 -86 67 -155 82 -66 14 -114 13 -173 -3z m194 -118 c83 -41 124 -147 114 -291 -11 -156 -87 -247 -208 -247 -94 0 -148 32 -192 115 -19 35 -22 56 -22 165 0 110 3 130 22 166 25 47 83 102 116 108 12 3 31 7 42 9 31 7 86 -4 128 -25z" /><path d="M5909 1250 c-19 -10 -49 -38 -65 -62 l-29 -43 -3 53 -3 52 -55 0 -54 0 2 -367 3 -368 60 0 60 0 5 255 c6 283 12 312 74 352 30 18 57 19 139 6 14 -2 24 9 39 47 18 47 19 50 2 62 -22 16 -81 33 -114 33 -14 -1 -41 -9 -61 -20z" /><path d="M8177 1260 c-104 -27 -179 -88 -224 -185 -26 -56 -28 -68 -28 -195 0 -127 2 -139 28 -196 36 -76 84 -125 162 -161 51 -23 73 -27 145 -27 71 0 95 5 146 28 73 33 135 93 164 158 49 112 47 296 -6 405 -31 65 -109 136 -172 158 -58 20 -164 27 -215 15z m193 -129 c33 -20 52 -41 75 -86 28 -54 30 -66 30 -164 0 -96 -3 -111 -29 -164 -39 -80 -95 -117 -178 -117 -32 0 -73 6 -91 14 -46 19 -102 88 -118 144 -18 65 -16 197 5 258 45 136 184 188 306 115z" /><path d="M8938 1257 c-102 -29 -173 -102 -207 -211 -29 -95 -34 -171 -17 -252 35 -169 129 -265 274 -280 81 -9 129 6 214 68 28 20 32 2 21 -81 -18 -137 -76 -186 -214 -179 -88 4 -124 22 -148 76 -10 21 -23 33 -43 37 -15 3 -42 8 -60 11 l-31 6 7 -48 c3 -27 17 -64 30 -84 68 -102 286 -137 432 -68 53 24 119 96 136 147 8 25 13 163 15 444 l4 407 -55 0 -56 0 0 -41 0 -41 -31 27 c-78 65 -178 88 -271 62z m197 -125 c27 -19 50 -46 70 -87 27 -55 30 -68 30 -160 -1 -145 -37 -215 -133 -257 -93 -41 -189 -1 -239 99 -25 52 -28 68 -28 158 0 73 5 113 18 147 20 53 82 114 124 124 16 3 33 7 38 9 24 8 83 -9 120 -33z" /><path d="M9757 1260 c-87 -22 -174 -93 -215 -175 -30 -61 -45 -155 -39 -248 12 -191 107 -306 277 -337 113 -20 222 7 297 75 46 40 104 138 90 151 -3 3 -32 8 -64 11 -58 5 -60 5 -72 -23 -32 -76 -91 -114 -179 -114 -75 0 -129 24 -166 73 -29 37 -56 107 -56 143 l0 24 270 0 c235 0 271 2 277 15 10 29 -14 172 -39 227 -50 109 -150 176 -275 183 -37 2 -85 0 -106 -5z m133 -101 c84 -19 149 -96 150 -176 l0 -33 -200 0 -200 0 0 28 c1 64 76 164 133 176 42 9 62 14 67 15 3 0 25 -4 50 -10z" /><path d="M11733 1260 c-122 -26 -215 -124 -247 -260 -53 -225 33 -427 207 -486 61 -21 183 -24 243 -6 87 25 181 117 199 194 6 25 4 27 -32 33 -87 14 -81 16 -110 -37 -40 -73 -93 -101 -182 -96 -52 3 -77 10 -107 29 -45 30 -90 105 -100 167 l-7 42 278 0 278 0 -6 78 c-7 99 -30 167 -76 228 -69 92 -214 140 -338 114z m127 -101 c82 -19 143 -87 152 -169 l3 -35 -202 -3 -203 -2 0 27 c0 41 37 109 78 143 29 24 69 40 122 49 3 0 25 -4 50 -10z" /><path d="M12511 1253 c-19 -10 -48 -37 -65 -61 l-31 -44 -3 51 -3 51 -55 0 -54 0 0 -370 0 -371 63 3 62 3 5 260 c6 288 9 306 73 346 31 19 40 20 135 7 20 -3 27 5 42 46 11 27 17 52 15 57 -8 11 -96 39 -124 39 -14 0 -41 -8 -60 -17z" /><path d="M12810 580 l0 -70 70 0 70 0 0 70 0 70 -70 0 -70 0 0 -70z" /></g></g></svg>