<?xml version="1.0" encoding="UTF-8"?>
<svg id="Layer_1" data-name="Layer 1" xmlns="http://www.w3.org/2000/svg" viewBox="0 0 107.96 10.94">
  <defs>
    <style>
      .cls-1 {
        fill: #231f20;
      }
    </style>
  </defs>
  <path class="cls-1" d="M1.3.02v7.47h4.09v1.09H0V.02h1.3Z"/>
  <path class="cls-1" d="M8.94,8.74c-1.85,0-3.08-1.33-3.08-3.29s1.3-3.23,3.07-3.23c2.15,0,2.93,1.69,2.94,3.37v.23h-4.82c.1,1.19.84,1.91,1.88,1.91.77,0,1.42-.3,1.63-.98h1.21c-.35,1.28-1.4,1.99-2.83,1.99ZM10.64,4.91c-.1-.98-.65-1.69-1.72-1.69s-1.73.68-1.87,1.69h3.59Z"/>
  <path class="cls-1" d="M15.36,7.59h.42v1.01h-.6c-1.32,0-1.82-.77-1.82-1.82v-3.41h-.95v-.98h.95V.95l1.21-.54v1.98h1.2v.98h-1.2v3.29c0,.6.25.94.79.94Z"/>
  <path class="cls-1" d="M18.47,0l-.91,2.96h-1.1l.65-2.96h1.37Z"/>
  <path class="cls-1" d="M20.89,3.21c-.56,0-1.09.32-1.09.8s.43.72,1.01.86c.29.07.55.13.83.2.97.25,1.83.72,1.83,1.73,0,1.27-1.3,1.93-2.49,1.93s-2.45-.53-2.57-2.04h1.22c.13.73.59,1.04,1.37,1.04.6,0,1.25-.22,1.25-.86,0-.52-.49-.68-1.04-.83-.29-.07-.59-.14-.88-.23-.96-.24-1.74-.8-1.74-1.76,0-1.15,1.15-1.83,2.34-1.83,1.27,0,2.31.67,2.45,2.01h-1.2c-.07-.74-.68-1.03-1.28-1.03Z"/>
  <path class="cls-1" d="M28.02.02l1.37,6.21.2.97h.02l.22-.97L31.22.02h1.73l1.33,6.21.22.98h.02l.22-.98L36.17.02h1.37l-1.58,6.21-.59,2.35h-1.75l-.48-2.35-1.04-4.92h-.02l-1.1,4.92-.52,2.35h-1.74l-.55-2.35L26.65.02h1.37Z"/>
  <path class="cls-1" d="M37.78,5.49c0-1.88,1.3-3.26,3.15-3.26s3.14,1.38,3.14,3.26-1.28,3.25-3.14,3.25-3.15-1.37-3.15-3.25ZM40.93,7.72c1.15,0,1.93-1.01,1.93-2.23s-.78-2.24-1.93-2.24-1.93,1.01-1.93,2.24.77,2.23,1.93,2.23Z"/>
  <path class="cls-1" d="M46.43,3.59c.32-.89.95-1.24,1.86-1.24v1.16c-.06,0-.34.01-.52.06-.66.11-1.33.43-1.33,2.13v2.88h-1.24V2.39h1.22v1.2Z"/>
  <path class="cls-1" d="M49.28,8.59V.02h1.24v5l2.57-2.64h1.49l-2.59,2.64,2.69,3.56h-1.51l-2.03-2.72-.61.59v2.13h-1.24Z"/>
  <path class="cls-1" d="M57.67.02h6.46v1.09h-2.59v7.47h-1.3V1.12h-2.58V.02Z"/>
  <path class="cls-1" d="M63.6,5.49c0-1.88,1.3-3.26,3.15-3.26s3.14,1.38,3.14,3.26-1.28,3.25-3.14,3.25-3.15-1.37-3.15-3.25ZM66.75,7.72c1.15,0,1.93-1.01,1.93-2.23s-.78-2.24-1.93-2.24-1.93,1.01-1.93,2.24.77,2.23,1.93,2.23Z"/>
  <path class="cls-1" d="M76.81,2.39v5.66c0,1.93-1.39,2.89-2.96,2.89s-2.77-.82-2.91-2.12h1.22c.12.82.76,1.13,1.69,1.13s1.7-.53,1.7-1.82v-.74h-.01c-.26.71-.85,1.28-2.02,1.28-1.74,0-2.88-1.33-2.88-3.23s1.13-3.2,2.88-3.2c1.15,0,1.79.64,2.02,1.21h.01v-1.06h1.26ZM73.75,7.64c1.42,0,1.87-1.25,1.87-2.21s-.62-2.18-1.87-2.18-1.87,1.04-1.87,2.18.59,2.21,1.87,2.21Z"/>
  <path class="cls-1" d="M81.02,8.74c-1.85,0-3.08-1.33-3.08-3.29s1.3-3.23,3.07-3.23c2.15,0,2.93,1.69,2.94,3.37v.23h-4.82c.1,1.19.84,1.91,1.88,1.91.77,0,1.42-.3,1.63-.98h1.21c-.35,1.28-1.4,1.99-2.83,1.99ZM82.72,4.91c-.1-.98-.65-1.69-1.72-1.69s-1.73.68-1.87,1.69h3.59Z"/>
  <path class="cls-1" d="M87.44,7.59h.42v1.01h-.6c-1.32,0-1.82-.77-1.82-1.82v-3.41h-.95v-.98h.95V.95l1.21-.54v1.98h1.2v.98h-1.2v3.29c0,.6.25.94.79.94Z"/>
  <path class="cls-1" d="M88.87.02h1.22v3.49c.32-.71.9-1.28,1.86-1.28,1.62,0,2.23,1.07,2.23,2.41v3.95h-1.22v-3.74c0-1.03-.4-1.56-1.25-1.56s-1.61.76-1.61,2.34v2.96h-1.24V.02Z"/>
  <path class="cls-1" d="M98.35,8.74c-1.85,0-3.08-1.33-3.08-3.29s1.3-3.23,3.07-3.23c2.15,0,2.93,1.69,2.94,3.37v.23h-4.82c.1,1.19.84,1.91,1.88,1.91.77,0,1.42-.3,1.63-.98h1.21c-.35,1.28-1.4,1.99-2.83,1.99ZM100.05,4.91c-.1-.98-.65-1.69-1.72-1.69s-1.73.68-1.87,1.69h3.59Z"/>
  <path class="cls-1" d="M103.68,3.59c.32-.89.95-1.24,1.86-1.24v1.16c-.06,0-.34.01-.52.06-.66.11-1.33.43-1.33,2.13v2.88h-1.24V2.39h1.22v1.2Z"/>
  <path class="cls-1" d="M106.56,7.1h1.4v1.49h-1.4v-1.49ZM107.61,6.38h-.72l-.29-3.66V.02h1.3v2.7l-.29,3.66Z"/>
</svg>